<svg width="20" height="20" viewBox="0 0 20 20" fill="none" xmlns="http://www.w3.org/2000/svg">
<path d="M2.07765 7.18554C1.6014 4.52816 3.36148 2.22625 6.10513 2.00883C8.52092 1.81902 9.71847 4.74558 9.96005 5.30467C9.96272 5.31404 9.96838 5.32229 9.97617 5.32816C9.98395 5.33403 9.99344 5.33721 10.0032 5.33721C10.0129 5.33721 10.0224 5.33403 10.0302 5.32816C10.038 5.32229 10.0436 5.31404 10.0463 5.30467C11.1679 2.2297 13.211 2.09856 13.9289 2.02609C15.8615 1.81902 18.4533 3.31336 17.9322 6.79556C17.1867 11.6271 9.95314 17.0834 9.95314 17.0834C9.95314 17.0834 3.01981 12.3795 2.07765 7.18554Z" fill="black" stroke="black" stroke-width="2"/>
</svg>
